PathFileType	4	(X/Y/Z)	C:\Users\WrightLab\Desktop\Jo\P2_Trial8.trc
DataRate	CameraRate	NumFrames	NumMarkers	Units	OrigDataRate	OrigDataStartFrame	OrigNumFrames
100.00	100.00	       10	19	mm	100.00	700	       932
Frame#	Time	Headset_Front			Headset_Back			Headset_Left			Headset_Right			Left_Shoulder			Right_Shoulder			Sternum			C7			Left Elbow			Right Elbow			Left Wrist			Right Wrist			Left ASIS			Right ASIS			S2			Left Knee			Right Knee			Left Ankle			Right Ankle			
		X1	Y1	Z1	X2	Y2	Z2	X3	Y3	Z3	X4	Y4	Z4	X5	Y5	Z5	X6	Y6	Z6	X7	Y7	Z7	X8	Y8	Z8	X9	Y9	Z9	X10	Y10	Z10	X11	Y11	Z11	X12	Y12	Z12	X13	Y13	Z13	X14	Y14	Z14	X15	Y15	Z15	X16	Y16	Z16	X17	Y17	Z17	X18	Y18	Z18	X19	Y19	Z19	

700	6.990	-679.45441	1483.13867	-424.75418	-756.62292	1710.01135	-226.91888	-831.56506	1600.35840	-337.57632	-605.32312	1564.71960	-320.76773	-898.57587	1459.70325	-179.52103	-570.12646	1465.24658	-213.56754	-737.60577	1347.51245	-270.26035	-715.09119	1447.68335	-99.28065				-492.24188	1172.44910	-66.04168	-1065.54419	1247.06494	-300.13800	-418.59113	953.56378	-7.16839	-784.33105	1052.78735	-294.17725	-653.88879	1047.60498	-315.63443	-679.91992	974.14581	-41.65305	-882.61017	447.44455	-93.41178	-548.41144	582.46783	-305.45639	-862.94934	87.05984	-74.13084	-576.02515	173.44719	-228.97191	
701	7.000	-677.44543	1482.58936	-430.18427	-756.31299	1709.76428	-233.51778	-830.42609	1600.24207	-344.26129	-605.81439	1563.23083	-325.54813	-899.27380	1459.94104	-187.39261	-570.13190	1464.09729	-217.41869	-737.72949	1346.93079	-276.09174	-716.91638	1447.48853	-103.81088				-496.94604	1172.07544	-67.87543	-1065.71924	1248.70288	-310.54156	-423.61505	952.59021	-6.61396	-783.92493	1052.16260	-300.43384	-653.60797	1047.07959	-319.50186	-682.56531	972.87976	-46.58319	-882.15515	447.43207	-95.35189	-544.40430	582.48767	-309.56641	-862.70673	87.39079	-76.24548	-576.12207	168.47780	-250.83398	
702	7.010	-675.63629	1481.77747	-435.70459	-755.65314	1709.27087	-239.35263	-829.04535	1600.13318	-351.02176	-603.66705	1563.22070	-330.24695	-899.28851	1459.56213	-195.05467	-569.30469	1462.89380	-222.44185	-736.91931	1346.26135	-280.91464	-718.42816	1446.43811	-108.95612				-499.26437	1171.92590	-69.52467	-1064.33154	1250.43494	-321.16376	-427.76160	951.40778	-7.45543	-783.05060	1051.83203	-307.37784	-652.54730	1047.07483	-325.25375	-685.56921	973.28595	-49.54814	-881.97699	448.02417	-97.14114	-540.36761	582.81445	-313.79150	-862.81500	87.37965	-76.64149	-575.10577	163.68777	-272.21866	
703	7.020	-673.51300	1481.91138	-441.79395	-754.87317	1708.64026	-245.50751	-827.49841	1599.64270	-357.77264	-602.55579	1562.11633	-335.82809	-899.55670	1459.40845	-203.27995	-569.32605	1461.61804	-224.85381	-736.58527	1345.67627	-286.76395	-719.89630	1447.11475	-115.69965				-502.87799	1170.50098	-71.75819	-1063.19495	1251.58801	-330.69901	-431.70187	950.18030	-8.76813	-781.77411	1050.36719	-313.26263	-651.46484	1045.43201	-328.97964	-688.52472	972.87469	-54.35144	-880.92804	447.40793	-98.93840	-536.02502	582.63672	-317.10928	-862.82990	87.45031	-76.72556	-573.90948	158.32664	-292.71140	
704	7.030	-671.32770	1480.81323	-447.07312	-753.92291	1707.71338	-251.10387	-825.94293	1598.74231	-364.35950	-600.55243	1561.58167	-340.41962	-899.50195	1459.44751	-211.76215	-569.50085	1460.28662	-229.45589	-735.40088	1344.28943	-292.47818	-721.07605	1446.44788	-119.76121				-504.71280	1169.78955	-73.22393	-1061.20776	1251.35632	-340.72482	-436.05084	949.01563	-10.86344	-780.82660	1049.28113	-319.13733	-650.54211	1044.50476	-331.91312	-691.38995	972.91638	-57.73462	-880.33954	447.28586	-100.40759	-531.33563	581.99054	-320.59158	-862.40704	87.00048	-79.19379	-571.83496	153.49403	-313.72989	
705	7.040	-669.10028	1479.74451	-453.08508	-752.53876	1707.02393	-257.51401	-824.07471	1598.15955	-371.23810	-598.58881	1561.07751	-346.45331	-899.16382	1459.08887	-219.76488	-569.29071	1459.09912	-233.56094	-734.64319	1343.60864	-298.46912	-721.86475	1445.54712	-126.94263				-506.33267	1168.55627	-76.65110	-1060.47559	1253.75903	-351.88480	-437.77948	947.56354	-12.12345	-779.86328	1047.86316	-325.36566	-649.01923	1043.88904	-336.14514	-694.82385	971.82776	-63.79040	-879.49573	447.35840	-102.41712	-525.88513	581.41278	-322.85144	-862.34863	87.30466	-79.10254	-568.19965	149.85759	-333.22266	
706	7.050	-666.90063	1478.60779	-458.83011	-750.98029	1706.18567	-264.03430	-821.99219	1597.66992	-377.93106	-598.25360	1559.05200	-351.87454	-898.74481	1458.87073	-227.89133	-567.79681	1458.15430	-237.65701	-733.51862	1342.65100	-305.10370	-723.27039	1444.73340	-131.77998				-508.09470	1167.63318	-79.63248	-1056.53381	1252.74805	-360.24039	-440.59848	945.88245	-14.23416	-778.03973	1046.30273	-330.65039	-648.06000	1042.56152	-340.63165	-696.72015	970.80377	-69.14790	-878.64667	447.23740	-104.97449	-520.90839	579.85675	-324.74066	-861.90472	87.62599	-80.02037	-564.04895	147.04114	-354.31610	
707	7.060	-664.64783	1477.33081	-464.11057	-749.15942	1705.44275	-270.60477	-819.73627	1596.99829	-384.96191	-596.94391	1557.40637	-357.29449	-898.05054	1458.55981	-235.64653	-567.63086	1456.70361	-241.77188	-732.16937	1341.40479	-310.66058	-721.77722	1446.75903	-131.12062				-508.35434	1166.08020	-83.32373	-1053.66187	1252.10901	-369.84625	-442.05499	943.57056	-18.16074	-776.90302	1044.95105	-336.84662	-646.11841	1041.46008	-345.54248	-699.96106	969.73096	-77.65636	-878.81799	447.41971	-107.93916	-517.24536	578.00018	-327.09067	-861.24445	88.27188	-81.13577	-558.76660	145.44826	-374.04654	
708	7.070	-661.96838	1476.44116	-470.91086	-747.13715	1704.53455	-277.24692	-817.42688	1596.15808	-392.04486	-592.38153	1556.94263	-362.46494	-896.97876	1458.18042	-243.72644	-566.87689	1455.45813	-246.39700	-730.69214	1340.62781	-316.83923	-721.56049	1445.54138	-136.12865				-509.48267	1164.30188	-86.77225	-1053.27197	1253.04932	-382.00848	-442.95816	943.50183	-20.74606	-775.44916	1043.85522	-343.69348	-644.52264	1040.69214	-350.37097	-701.72742	969.49207	-82.38584	-878.89679	448.30328	-111.42931	-515.35773	576.13342	-330.19095	-860.71155	89.23687	-79.55873	-553.16339	143.75694	-392.68011	
709	7.080	-659.62451	1474.92346	-476.16907	-744.88617	1703.92468	-284.14172	-814.90509	1595.45215	-398.78070	-590.46930	1555.52844	-368.05276	-896.25220	1458.21448	-252.01772	-565.36548	1454.43579	-250.51476	-729.56482	1339.66284	-323.45422	-722.90912	1445.82324	-142.65163				-509.95181	1163.73889	-90.51372	-1049.99500	1251.66211	-391.69675	-443.65738	941.88342	-24.15453	-774.56378	1042.97388	-349.60843	-643.14001	1039.26709	-354.13901	-703.30334	969.36627	-87.39485	-878.52368	448.38449	-115.03513	-514.11304	575.43005	-332.35931	-860.05249	89.75929	-79.72950	-545.50586	145.38649	-412.99454	
